/* XPM */
static char *chimp[] = {
/* columns rows colors chars-per-pixel */
"30 31 76 1",
"  c black",
". c gray2",
"X c gray3",
"o c #0E0E0E",
"O c #101010",
"+ c gray7",
"@ c gray8",
"# c #161616",
"$ c #181818",
"% c #1B1B1B",
"& c #1D1D1D",
"* c #232323",
"= c gray14",
"- c gray17",
"; c #2F2F2F",
": c #323232",
"> c gray20",
", c #373737",
"< c gray23",
"1 c gray24",
"2 c #414141",
"3 c #464646",
"4 c gray29",
"5 c #4E4E4E",
"6 c gray32",
"7 c #565656",
"8 c #5B5B5B",
"9 c #5C5B5A",
"0 c #5F5F5F",
"q c #606060",
"w c #646464",
"e c #686868",
"r c #6C6C6C",
"t c gray44",
"y c #747474",
"u c gray46",
"i c gray48",
"p c #7E7E7E",
"a c #818181",
"s c #838383",
"d c #868686",
"f c #888888",
"g c #8E8E8E",
"h c gray57",
"j c gray58",
"k c #989898",
"l c #9F9F9F",
"z c #A0A0A0",
"x c gray65",
"c c #AAAAAA",
"v c #ACACAC",
"b c #B2B2B2",
"n c #B4B4B4",
"m c #B6B6B6",
"M c gray73",
"N c #BCBCBB",
"B c #BCBCBC",
"V c gray75",
"C c gray76",
"Z c #C5C5C5",
"A c #CBCBCB",
"S c #CECECE",
"D c gray82",
"F c gray84",
"G c #D8D8D8",
"H c #DADADA",
"J c gray87",
"K c gray88",
"L c #E4E4E4",
"P c gray92",
"I c #ECECEC",
"U c gray94",
"Y c #F4F4F4",
"T c #F6F6F6",
"R c #FBFBFB",
"E c gray100",
/* pixels */
"EEEEEEEEEEEREERm1<bczjkzMTEERE",
"EEEEEEEEEEEEETg# ++ .. o7LEEEE",
"EEEEEEEEEEEETpX       .4lDIEEE",
"EEEEEEEEEEERhX         .X+>qbR",
"EEEEEEELchzv#              oqI",
"EEEEEEHhSKc-             ,aATE",
"EEEEEThJLJRa             hEEEE",
"EEEEESzEKmvS# ..         *fCHT",
"EEEEEcZEEFpB%<vz2+.%7i6.   X%4",
"EEEEElDECjer%ZKbjq3qkcm0.    *",
"EEEEElCECvg++AS8vBa0<1dp0%  3A",
"EEEEEMlERA3  dCbEHt7%xZuBf %lE",
"EEEEETca7&   <kAEm93+va2wcXzRE",
"EEEEEEB#     +jjIv;5u76<77-JEE",
"EEEEEEe     XtUBguuhlr*%2p6lEE",
"EEEEEEmo   .pTEERTAzzmw8KCqFEE",
"EEEEEEC+   >PETEEER0rptzSHwHEE",
"EEEERm;    7ETZREEEMFMmRTExiEE",
"EEEPu+     4TEMNEEEEEEEEEEIqLE",
"EEL6       -KEThzUEEEEEETZLuFE",
"EU0        XMEETztlZFHAxruLaDE",
"Uu          rEEEEKxduifxFRRiKE",
"p.          #cRRTUEEEREEEFigEE",
"+            +461>aJTRRLk8zTEE",
".                 .*243=.8TEEE",
"%                        +vEEE",
"q                         %zEE",
"F,      o.     .#          &DE",
"EFe-+o*eBw    #aC-      .  #DE",
"EEELSAKEEKe-=6BEEv%    1ccpjRE",
"EEEEEEEEEERLJTEEEEm, oqKEEEEEE"
};
